<?xml version="1.0" encoding="UTF-8"?>
<svg id="Layer_2" data-name="Layer 2" xmlns="http://www.w3.org/2000/svg" viewBox="0 0 976.47 977.45">
  <defs>
    <style>
      #Camada_1 {
        filter: drop-shadow(0px 0px 120px #01e4fa);
      }
      .cls-1 {
        fill: #71bde1;
      }

      .cls-1, .cls-2, .cls-3, .cls-4, .cls-5, .cls-6, .cls-7 {
        stroke-width: 0px;
      }

      .cls-2 {
        fill: #4997c5;
      }

      .cls-3 {
        fill: #6bc3f0;
      }

      .cls-4 {
        fill: #c9e6f2;
      }

      .cls-5 {
        fill: #97daf8;
      }

      .cls-6 {
        fill: #3c80a7;
      }

      .cls-7 {
        fill: #fff;
      }
    </style>
  </defs>
  <g id="Camada_1" data-name="Camada 1">
    <path class="cls-5" d="M713.51,117.75c-2.2,0-4.42.03-6.66.09-186.63,5.14-215.3,187.2-215.3,187.2,0,0-34.93,179.69,157.45,248.49,151.29,54.11,244.79,208.82,244.79,208.82,85.36-133.83,87.72-249.91,79.64-329.71-7.98-78.91-66.32-314.89-259.92-314.88"/>
    <path class="cls-7" d="M337.34,212.87c-77.1,0-140.87,73.75-171.48,163.89-34.63,101.97-18.81,219.36,42.87,305.73,0,0,23.66-102.95,205.85-266.65,0,0,39.14-35.23,39.14-87.7s-37.67-111.88-110.97-115.14c-1.8-.08-3.61-.12-5.4-.12"/>
    <path class="cls-3" d="M16.08,563.99c-6.36,0-10.08.43-10.08.43,0,0,24,119.84,67.66,182.28,0,0,77.48,76.2,191.08,91.89,0,0-48.38-28.96-99.73-167.74-36.27-98.02-119.96-106.85-148.93-106.85"/>
    <path class="cls-4" d="M270.4,51.2s-122.54,47.95-211.45,204.67c-42.91,75.63-68.44,151.54,4.65,172.13,0,0,4.07.76,10.28.76,17.22,0,50.88-5.87,59.89-50.1,12.58-61.81,18.81-231.18,136.62-327.47"/>
    <path class="cls-6" d="M457.65,0c-97.68,0-257.09,100.63-272.62,276.19,0,0,58.5-100.31,195.05-100.31,22.18,0,46.38,2.64,72.76,8.79,4.31,1.01,9.34,1.55,14.83,1.55,34.2,0,86.29-21.12,93.9-83.68,0,0,9.37-92.8-92.13-102.02-3.82-.35-7.75-.52-11.8-.52"/>
    <path class="cls-7" d="M569.02,6.3c48.94,48.41,30.54,105.74,30.54,105.74,38.43-20.03,77.29-25.73,109.1-25.73,42.15,0,71.93,10.02,71.93,10.02C688.51,22.5,569.02,6.3,569.02,6.3"/>
    <path class="cls-5" d="M4.65,421.86s-8.56,63.49-2.45,111.9c0,0,5.38-.75,14.47-.75,22.4,0,67.33,4.53,110.07,35.95,0,0-14.56-65.86-6.21-122.07,0,0-19.86,10.79-45.78,10.79-21.82,0-47.94-7.65-70.11-35.83"/>
    <path class="cls-4" d="M464.86,399.87s-10.05,24.1-153.56,167.16c0,0,79.92-34.83,179.97-34.83,19.89,0,40.55,1.37,61.57,4.67,0,0-68.83-46.63-87.97-137"/>
    <path class="cls-2" d="M414.58,203.36c39.21,26.25,54.44,60.41,54.44,60.41,6.6-25.82,20.97-48.95,20.97-48.95-7.17,1.36-14.08,1.92-20.62,1.92-31.86,0-54.78-13.38-54.78-13.38"/>
    <path class="cls-7" d="M715.02,762.93c-75.21,0-130.41,33.5-168.66,91.82-35.79,54.57-26.54,121.63-26.54,121.63,0,0,91.59-2.26,191.55-52.58,99.96-50.32,152.93-123.89,152.93-123.89,0,0-50.66-30.99-131.54-36.38-6.04-.4-11.95-.6-17.75-.6"/>
    <path class="cls-2" d="M545.12,805.5c-79.02,52.88-156.69,69.13-222.36,69.13-104.94,0-179.22-41.52-179.22-41.52,130.36,135.74,297.03,144.34,337.2,144.34,5.83,0,9-.18,9-.18-11.93-103.86,55.39-171.77,55.39-171.77"/>
    <path class="cls-1" d="M489.05,563.79c-84.51,0-225.91,16.45-251.21,123.57,0,0-17.15,69.75,35.02,118.14,14.14,13.11,40.14,35.17,88.26,35.17,33.92,0,78.83-10.96,138.34-43.73,88.84-48.93,167.12-68.07,231.05-68.07,53.11,0,96.33,13.2,127.51,33.48,0,0-87.36-158.18-305.19-195.31,0,0-26.29-3.24-63.78-3.24"/>
  </g>
</svg>