<?xml version="1.0" encoding="UTF-8"?>
<svg id="Layer_2" data-name="Layer 2" xmlns="http://www.w3.org/2000/svg" version="1.1" viewBox="0 0 62.07 66">
  <defs>
    <style>
      .cls-1 {
        fill: #fff;
        stroke-width: 0px;
      }
    </style>
  </defs>
  <g id="Layer_1-2" data-name="Layer 1-2">
    <g>
      <path class="cls-1" d="M56.3,24.34c-.29,0-.56-.09-.8-.25-.31-.21-.52-.54-.59-.91-.07-.37,0-.75.23-1.06.58-.84,1.11-1.67,1.57-2.47.25-.43.72-.7,1.23-.7.25,0,.49.07.71.19.33.19.56.5.66.86.1.37.04.75-.15,1.07-.5.85-1.06,1.74-1.69,2.65-.26.38-.7.61-1.16.61h0Z"/>
      <path class="cls-1" d="M31.04,66c-.89,0-1.78-.18-2.65-.54-.72-.3-1.06-1.13-.76-1.85.22-.53.73-.87,1.31-.87.19,0,.37.04.54.11.51.22,1.04.33,1.55.33s1.04-.11,1.56-.33c.17-.07.35-.11.54-.11.57,0,1.09.34,1.31.87.15.35.15.73,0,1.08-.14.35-.42.62-.76.77-.87.36-1.76.55-2.65.55h0Z"/>
      <path class="cls-1" d="M31.04,38.63c-3.1,0-5.63-2.52-5.63-5.63s2.52-5.63,5.63-5.63,5.63,2.52,5.63,5.63-2.52,5.63-5.63,5.63ZM31.04,30.2c-1.54,0-2.8,1.25-2.8,2.8s1.25,2.8,2.8,2.8,2.8-1.25,2.8-2.8-1.25-2.8-2.8-2.8Z"/>
      <path class="cls-1" d="M24.59,61.79c-.48,0-.92-.24-1.18-.63-1.04-1.57-2-3.52-2.85-5.78-.07-.18-.21-.33-.39-.4-.08-.03-.17-.05-.26-.05-.1,0-.2.02-.3.07-5.14,2.44-9.6,3.73-12.9,3.73-2.02,0-3.61-.47-4.75-1.41-.83-.69-1.83-1.97-1.83-4.2,0-4.61,4.3-11.71,11.79-19.47.26-.27.26-.7,0-.96C2.57,23.15-1.58,15.13.55,10.68c.57-1.19,1.87-2.67,4.82-2.98.06,0,.11-.01.17-.01.7,0,1.31.56,1.39,1.27.08.78-.48,1.47-1.26,1.55-1.35.14-2.19.6-2.57,1.39-1.47,3.08,2.88,10.63,10.83,18.78.14.14.31.21.49.21s.34-.06.48-.19c.66-.63,1.33-1.26,1.99-1.85.13-.12.22-.29.23-.47C18.03,11.93,23.88,0,31.04,0,35.17,0,38.9,3.83,41.56,10.78c.07.18.21.32.39.39.08.03.17.05.26.05.1,0,.2-.02.3-.07,5.12-2.43,9.56-3.71,12.85-3.71,2.02,0,3.61.47,4.75,1.41,1.02.84,2.15,2.46,1.74,5.4-.1.71-.69,1.22-1.4,1.22-.06,0-.13,0-.2-.01-.37-.05-.7-.24-.93-.55-.23-.3-.32-.67-.27-1.05.18-1.34-.06-2.26-.74-2.82-.64-.53-1.61-.79-2.89-.79-2.87,0-7.2,1.32-12.19,3.72-.3.14-.46.48-.37.81,1.11,4.05,1.82,8.59,2.09,13.51,0,.18.09.35.23.48.67.6,1.33,1.21,1.97,1.81.13.13.3.19.47.19.18,0,.36-.07.5-.21,1.04-1.07,2.01-2.14,2.91-3.17.27-.31.66-.49,1.07-.49.34,0,.67.12.93.35.59.51.65,1.41.14,1.99-.93,1.07-1.95,2.18-3.03,3.3-.26.27-.26.7,0,.96,9.36,9.54,13.51,17.56,11.39,22.01-.46.97-1.47,2.24-3.65,2.78-.69.17-1.47.26-2.33.26-3.37,0-7.92-1.3-13.17-3.76-.09-.04-.19-.07-.29-.07-.09,0-.18.02-.26.05-.18.07-.32.21-.39.39-.9,2.36-1.93,4.38-3.06,6.01-.26.38-.7.61-1.17.61-.29,0-.56-.09-.8-.25-.31-.21-.52-.54-.59-.91s0-.75.23-1.06c1.08-1.57,2.07-3.53,2.91-5.82.12-.32-.02-.69-.32-.85-2.32-1.25-4.74-2.69-7.18-4.28-.12-.08-.25-.11-.38-.11s-.27.04-.38.12c-2.5,1.66-4.98,3.16-7.36,4.46-.3.16-.43.52-.32.84.8,2.25,1.72,4.16,2.73,5.67.43.65.25,1.53-.4,1.96-.23.15-.5.24-.78.24h.02ZM14.45,35.42c-.18,0-.36.07-.5.21-6.77,7.04-10.98,13.74-10.98,17.48,0,1.37.6,1.86.79,2.02.64.52,1.61.79,2.88.79,2.89,0,7.24-1.33,12.26-3.75.3-.14.45-.48.37-.8-1.1-4.04-1.84-8.7-2.13-13.46-.01-.18-.09-.35-.23-.47-.66-.59-1.33-1.21-1.99-1.83-.13-.13-.3-.19-.47-.19ZM47.65,35.29c-.17,0-.34.06-.48.19-.65.62-1.33,1.25-2.01,1.88-.13.12-.21.29-.22.47-.3,4.71-1.06,9.33-2.18,13.35-.09.32.06.67.37.81,5.04,2.41,9.44,3.74,12.39,3.74.63,0,1.21-.06,1.7-.18,1.33-.33,1.66-1.03,1.77-1.25,1.47-3.08-2.88-10.63-10.83-18.79-.14-.14-.31-.21-.49-.21h-.02ZM21.04,41.17c-.11,0-.23.03-.33.09-.25.14-.39.41-.35.69.33,2.74.81,5.36,1.42,7.78.05.21.2.38.4.47.09.04.18.06.27.06.12,0,.23-.03.34-.09,1.59-.88,3.24-1.87,4.92-2.95.19-.12.31-.34.32-.57,0-.23-.1-.45-.29-.58-.82-.58-1.62-1.16-2.37-1.73-1.29-.97-2.6-1.98-3.88-3.02-.13-.1-.28-.15-.43-.15h-.02ZM41.03,41.15c-.16,0-.31.05-.44.16-1.98,1.62-4.05,3.22-6.15,4.73-.19.13-.29.35-.29.58s.13.44.32.56c1.61,1.01,3.22,1.97,4.79,2.83.1.06.22.09.33.09.09,0,.19-.02.27-.06.2-.08.34-.25.4-.46.62-2.39,1.11-4.96,1.44-7.66.04-.28-.1-.55-.35-.69-.1-.06-.22-.09-.33-.09h0ZM30.99,21.37c-.14,0-.28.04-.4.13-2.46,1.72-4.92,3.6-7.32,5.57-1.05.86-2.11,1.77-3.17,2.7-.14.13-.23.3-.23.49-.03.98-.05,1.88-.05,2.74,0,.99.02,2,.06,3,0,.19.09.37.24.49,2.21,1.91,4.54,3.79,6.93,5.58,1.19.89,2.42,1.77,3.64,2.61.12.08.26.12.39.12s.28-.04.4-.13c2.46-1.73,4.93-3.6,7.32-5.57,1.05-.86,2.11-1.77,3.16-2.69.14-.12.23-.3.23-.49.04-.98.06-1.97.06-2.93,0-.9-.02-1.81-.05-2.81,0-.19-.09-.37-.24-.5-2.21-1.92-4.55-3.8-6.94-5.59-1.2-.89-2.42-1.77-3.64-2.61-.12-.08-.25-.12-.39-.12h0ZM22.36,16.02c-.09,0-.19.02-.28.06-.2.09-.34.26-.39.47-.6,2.41-1.07,5.02-1.38,7.76-.03.28.11.55.36.69.1.06.22.08.33.08.16,0,.31-.05.44-.16l.04-.04c1.99-1.63,4.06-3.23,6.15-4.74.19-.13.29-.35.29-.58s-.13-.44-.32-.56c-1.65-1.04-3.3-2.01-4.9-2.89-.1-.06-.22-.09-.33-.09h-.01ZM39.69,15.9c-.12,0-.23.03-.34.09-1.6.89-3.28,1.89-4.99,2.98-.19.12-.31.34-.32.57,0,.23.1.45.29.58.89.63,1.67,1.2,2.38,1.72,1.31.97,2.63,2,3.93,3.06.13.1.28.15.44.15.11,0,.23-.03.33-.09.25-.14.39-.41.35-.69-.32-2.78-.8-5.42-1.41-7.86-.05-.21-.2-.38-.4-.47-.09-.04-.18-.06-.27-.06v.02ZM31.04,2.83c-2.98,0-5.93,3.48-8.1,9.53-.12.32.02.68.32.84,2.38,1.27,4.84,2.74,7.33,4.36.11.07.25.11.38.11s.27-.04.38-.12c2.52-1.67,5.01-3.19,7.41-4.49.3-.16.44-.52.32-.84-2.16-5.97-5.1-9.4-8.05-9.4h.01Z"/>
      <path class="cls-1" d="M15.11,12.41c-.17,0-.34-.03-.5-.09-.95-.36-1.89-.68-2.77-.94-.75-.22-1.18-1.01-.95-1.76.18-.6.73-1.02,1.35-1.02.14,0,.27.02.41.06.95.28,1.95.62,2.98,1.01.73.28,1.1,1.1.82,1.82-.21.55-.74.91-1.32.91h-.02Z"/>
    </g>
  </g>
</svg>