<?xml version="1.0" encoding="UTF-8"?>
<svg id="Layer_2" data-name="Layer 2" xmlns="http://www.w3.org/2000/svg" version="1.1" viewBox="0 0 60.33 66">
  <defs>
    <style>
      .cls-1 {
        fill: #fff;
        stroke-width: 0px;
      }
    </style>
  </defs>
  <g id="Layer_1-2" data-name="Layer 1-2">
    <path class="cls-1" d="M9.84,66c-.78,0-1.41-.63-1.41-1.41v-31.59c0-.38-.31-.69-.69-.69H1.41c-.78,0-1.41-.63-1.41-1.41v-6.32c0-.78.63-1.41,1.41-1.41h6.32c.38,0,.69-.31.69-.69V1.41C8.42.63,9.05,0,9.83,0h8.42C19.03,0,19.66.63,19.66,1.41v21.06c0,.38.31.69.69.69h16.85c.38,0,.69-.31.69-.69V3.52c0-.38-.31-.69-.69-.69-.78,0-1.41-.63-1.41-1.41S36.42,0,37.2,0h14.74c.78,0,1.41.63,1.41,1.41s-.63,1.41-1.41,1.41c-.38,0-.69.31-.69.69v30.02c0,3.97-3,7.2-6.68,7.2s-6.68-3.23-6.68-7.2v-.54c0-.38-.31-.69-.69-.69h-16.85c-.38,0-.69.31-.69.69v29.48c0,.38.31.69.69.69h8.9c.23,0,.44-.11.57-.3s.15-.43.07-.64c-.28-.71-.43-1.46-.43-2.22,0-4.54,4.33-10.37,4.82-11.02.27-.35.69-.56,1.13-.56s.86.21,1.13.56c.08.11.82,1.09,1.7,2.53.13.21.35.33.59.33h.03c.25,0,.48-.16.59-.39,1.68-3.48,3.83-6.37,4.07-6.68.26-.35.69-.56,1.13-.56s.86.21,1.13.56c.26.34,2.56,3.44,4.27,7.13.11.23.34.39.59.4h.03c.24,0,.47-.13.59-.34.95-1.6,1.81-2.76,1.97-2.98.27-.35.69-.56,1.13-.56s.86.21,1.13.56c1.79,2.36,4.82,7.33,4.82,11.02,0,3.3-2.67,5.99-5.95,5.99H9.84ZM35.42,52.95c-.24,0-.47.13-.59.34-.94,1.59-2.52,4.57-2.52,6.72,0,1.74,1.4,3.16,3.12,3.16h18.95c1.72,0,3.12-1.42,3.12-3.16,0-2.05-1.37-4.78-2.53-6.71-.12-.21-.35-.34-.59-.34h0c-.24,0-.47.13-.59.34-.96,1.61-1.67,3.09-2.09,4.39-.19.58-.75.98-1.37.98h-.09c-.64-.05-1.17-.54-1.28-1.18-.46-2.86-2.27-6.18-3.71-8.46-.13-.2-.35-.32-.58-.32h0c-.24,0-.46.12-.58.32-1.27,2.01-2.92,4.98-3.56,7.68-.14.61-.66,1.04-1.28,1.08h-.07c-.6,0-1.13-.35-1.34-.9-.44-1.11-1.04-2.32-1.8-3.59-.12-.21-.35-.34-.59-.34h-.03ZM11.94,32.31c-.38,0-.69.31-.69.69v29.48c0,.38.31.69.69.69h4.21c.38,0,.69-.31.69-.69v-29.48c0-.38-.31-.69-.69-.69h-4.21ZM41.42,25.99c-.38,0-.69.31-.69.69v6.85c0,2.37,1.76,4.37,3.85,4.37s3.85-2,3.85-4.37v-6.85c0-.38-.31-.69-.69-.69,0,0-6.32,0-6.32,0ZM20.37,25.99c-.38,0-.69.31-.69.69v2.11c0,.38.31.69.69.69h16.85c.38,0,.69-.31.69-.69v-2.11c0-.38-.31-.69-.69-.69h-16.85ZM11.94,25.99c-.38,0-.69.31-.69.69v2.11c0,.38.31.69.69.69h4.21c.38,0,.69-.31.69-.69v-2.11c0-.38-.31-.69-.69-.69h-4.21ZM3.52,25.99c-.38,0-.69.31-.69.69v2.11c0,.38.31.69.69.69h4.21c.38,0,.69-.31.69-.69v-2.11c0-.38-.31-.69-.69-.69H3.52ZM41.42,17.57c-.38,0-.69.31-.69.69v4.21c0,.38.31.69.69.69h6.32c.38,0,.69-.31.69-.69V3.52c0-.38-.31-.69-.69-.69h-6.32c-.38,0-.69.31-.69.69v4.21c0,.38.31.69.69.69h2.11c.78,0,1.41.63,1.41,1.41s-.63,1.41-1.41,1.41h-2.11c-.38,0-.69.31-.69.69v2.11c0,.38.31.69.69.69h2.11c.78,0,1.41.63,1.41,1.41s-.63,1.41-1.41,1.41h-2.11v.02ZM11.94,2.83c-.38,0-.69.31-.69.69v18.95c0,.38.31.69.69.69h4.21c.38,0,.69-.31.69-.69V3.52c0-.38-.31-.69-.69-.69h-4.21Z"/>
  </g>
</svg>