<?xml version="1.0" encoding="UTF-8"?>
<svg id="Layer_2" data-name="Layer 2" xmlns="http://www.w3.org/2000/svg" version="1.1" viewBox="0 0 66 66">
  <defs>
    <style>
      .cls-1 {
        fill: #fff;
        stroke-width: 0px;
      }
    </style>
  </defs>
  <g id="Layer_1-2" data-name="Layer 1-2">
    <g>
      <path class="cls-1" d="M14.05,66c-.78,0-1.41-.63-1.41-1.41s.63-1.41,1.41-1.41h5.72c.15,0,.3-.05.43-.15.89-.7,2.96-2.97,2.96-8.97,0-.38-.31-.69-.69-.69H5.05c-2.79,0-5.05-2.27-5.05-5.06V5.06C0,2.27,2.27,0,5.05,0h55.89C63.73,0,65.99,2.27,65.99,5.06v43.25c0,2.79-2.27,5.06-5.05,5.06h-17.42c-.38,0-.69.31-.69.69,0,6.01,2.06,8.27,2.94,8.97.12.1.27.15.43.15h5.75c.78,0,1.41.63,1.41,1.41s-.63,1.41-1.41,1.41c0,0-37.9,0-37.9,0ZM26.68,53.37c-.38,0-.69.31-.69.69,0,3.25-.54,5.98-1.61,8.11-.11.21-.1.47.03.67.13.2.35.33.59.33h16.01c.24,0,.46-.12.59-.33.13-.2.14-.46.03-.67-1.07-2.14-1.61-4.87-1.61-8.11,0-.38-.31-.69-.69-.69h-12.65ZM5.05,2.83c-1.21,0-2.23,1.02-2.23,2.23v43.25c0,1.21,1.02,2.23,2.23,2.23h55.89c1.21,0,2.23-1.02,2.23-2.23V5.06c0-1.21-1.02-2.23-2.23-2.23H5.05Z"/>
      <path class="cls-1" d="M51.95,32.31c-.78,0-1.41-.63-1.41-1.41s.63-1.41,1.41-1.41h4.21c.78,0,1.41.63,1.41,1.41s-.63,1.41-1.41,1.41h-4.21Z"/>
      <path class="cls-1" d="M47.74,38.63c-.78,0-1.41-.63-1.41-1.41s.63-1.41,1.41-1.41h8.42c.78,0,1.41.63,1.41,1.41s-.63,1.41-1.41,1.41h-8.42Z"/>
      <path class="cls-1" d="M47.74,44.94c-.78,0-1.41-.63-1.41-1.41s.63-1.41,1.41-1.41h8.42c.78,0,1.41.63,1.41,1.41s-.63,1.41-1.41,1.41h-8.42Z"/>
    </g>
    <polygon class="cls-1" points="43.46 28.1 26.89 18.53 26.89 37.66 43.46 28.1"/>
  </g>
</svg>