<?xml version="1.0" encoding="UTF-8"?>
<svg id="Layer_2" data-name="Layer 2" xmlns="http://www.w3.org/2000/svg" version="1.1" viewBox="0 0 66 66">
  <defs>
    <style>
      .cls-1 {
        fill: #fff;
        stroke-width: 0px;
      }
    </style>
  </defs>
  <g id="Layer_1-2" data-name="Layer 1-2">
    <g>
      <g>
        <path class="cls-1" d="M25.75,66c-1.79,0-3.24-1.46-3.24-3.24,0-.19.04-.37.11-.54,4-9.68,10.25-24.91,11.04-27.19.03-.07.04-.15.04-.23V3.85s0-.07,0-.1c0-.06.02-.12.02-.18,0-.19-.05-.38-.18-.52s-.31-.22-.51-.22h-2.14c-.78,0-1.41-.63-1.41-1.41S30.12,0,30.9,0h27.37c.78,0,1.41.63,1.41,1.41s-.63,1.41-1.41,1.41h-2.14c-.19,0-.38.08-.51.22-.13.14-.2.33-.18.52,0,.06,0,.12.02.18,0,.03,0,.07,0,.1v30.98c0,.07,0,.14.03.21.72,2.22,6.61,17.48,10.4,27.2.06.17.1.34.1.51,0,1.79-1.46,3.24-3.25,3.24H25.75ZM36.58,36.52c-.29,0-.55.18-.65.45-1.17,3.15-4.34,10.94-10.25,25.25-.09.21-.06.46.06.65.13.19.34.31.57.31h35.9c.23,0,.44-.11.57-.3s.16-.43.07-.64c-5.47-14.04-8.53-22.07-9.65-25.25-.1-.28-.36-.46-.65-.46h-15.98.01ZM37.21,28.1c-.38,0-.69.31-.69.69v4.21c0,.38.31.69.69.69h14.74c.38,0,.69-.31.69-.69V3.85c0-.55-.47-1.02-1.02-1.02h-14.08c-.55,0-1.02.47-1.02,1.02v3.88c0,.38.31.69.69.69h4.21c.78,0,1.41.63,1.41,1.41s-.63,1.41-1.41,1.41h-4.21c-.38,0-.69.31-.69.69v4.21c0,.38.31.69.69.69h4.21c.78,0,1.41.63,1.41,1.41s-.63,1.41-1.41,1.41h-4.21c-.38,0-.69.31-.69.69v4.21c0,.38.31.69.69.69h4.21c.78,0,1.41.63,1.41,1.41s-.63,1.41-1.41,1.41h-4.21v.04Z"/>
        <path class="cls-1" d="M10.89,66c-4.84,0-8.78-3.94-8.78-8.78V3.52c0-.38-.31-.69-.69-.69C.64,2.83.01,2.2.01,1.42S.63,0,1.41,0h18.95C21.14,0,21.77.63,21.77,1.41s-.63,1.41-1.41,1.41c-.38,0-.69.31-.69.69v53.7c0,4.84-3.94,8.78-8.78,8.78h0ZM5.63,36.52c-.38,0-.69.31-.69.69v20c0,3.28,2.67,5.96,5.96,5.96s5.96-2.67,5.96-5.96v-20c0-.38-.31-.69-.69-.69H5.63ZM5.63,28.1c-.38,0-.69.31-.69.69v4.21c0,.38.31.69.69.69h10.53c.38,0,.69-.31.69-.69V3.52c0-.38-.31-.69-.69-.69H5.63c-.38,0-.69.31-.69.69v4.21c0,.38.31.69.69.69h4.21c.78,0,1.41.63,1.41,1.41s-.63,1.41-1.41,1.41h-4.21c-.38,0-.69.31-.69.69v4.21c0,.38.31.69.69.69h4.21c.78,0,1.41.63,1.41,1.41s-.63,1.41-1.41,1.41h-4.21c-.38,0-.69.31-.69.69v4.21c0,.38.31.69.69.69h4.21c.78,0,1.41.63,1.41,1.41s-.63,1.41-1.41,1.41h-4.21v.04Z"/>
      </g>
      <path class="cls-1" d="M50.18,47.08c-.28-.73.08-1.55.81-1.83.73-.28,1.55.08,1.83.81l3.81,9.81c.28.73-.08,1.55-.81,1.83s-1.55-.08-1.83-.81l-3.81-9.81Z"/>
    </g>
  </g>
</svg>